<mxfile host="www.draw.io" modified="2021-01-05T01:08:48.801Z" agent="5.0 (Macintosh; Intel Mac OS X 10_13_6) AppleWebKit/537.36 (KHTML, like Gecko) Chrome/87.0.4280.88 Safari/537.36" etag="8VLqhjE17NO6LoxAz1y9" version="13.7.3" type="github">
  <diagram id="fmNGjkgLkNX6sRCFok3e" name="Page-1">
    <mxGraphModel dx="928" dy="519" grid="1" gridSize="10" guides="1" tooltips="1" connect="1" arrows="1" fold="1" page="1" pageScale="1" pageWidth="827" pageHeight="1169" math="0" shadow="0">
      <root>
        <mxCell id="0" />
        <mxCell id="1" parent="0" />
        <mxCell id="tClvh8Lru7cAY0okebPW-1" value="需求文档/需求宣讲" style="rounded=1;whiteSpace=wrap;html=1;" vertex="1" parent="1">
          <mxGeometry x="160" y="60" width="120" height="60" as="geometry" />
        </mxCell>
        <mxCell id="tClvh8Lru7cAY0okebPW-2" value="系统分析/设计" style="rounded=1;whiteSpace=wrap;html=1;" vertex="1" parent="1">
          <mxGeometry x="160" y="190" width="120" height="60" as="geometry" />
        </mxCell>
        <mxCell id="tClvh8Lru7cAY0okebPW-3" value="迭代开发" style="rounded=1;whiteSpace=wrap;html=1;" vertex="1" parent="1">
          <mxGeometry x="160" y="320" width="120" height="60" as="geometry" />
        </mxCell>
        <mxCell id="tClvh8Lru7cAY0okebPW-4" value="测试" style="rounded=1;whiteSpace=wrap;html=1;" vertex="1" parent="1">
          <mxGeometry x="160" y="450" width="120" height="60" as="geometry" />
        </mxCell>
        <mxCell id="tClvh8Lru7cAY0okebPW-5" value="发版上线" style="rounded=1;whiteSpace=wrap;html=1;" vertex="1" parent="1">
          <mxGeometry x="160" y="570" width="120" height="60" as="geometry" />
        </mxCell>
        <mxCell id="tClvh8Lru7cAY0okebPW-6" value="" style="endArrow=classic;html=1;exitX=0.5;exitY=1;exitDx=0;exitDy=0;" edge="1" parent="1" source="tClvh8Lru7cAY0okebPW-1" target="tClvh8Lru7cAY0okebPW-2">
          <mxGeometry width="50" height="50" relative="1" as="geometry">
            <mxPoint x="420" y="300" as="sourcePoint" />
            <mxPoint x="470" y="250" as="targetPoint" />
          </mxGeometry>
        </mxCell>
        <mxCell id="tClvh8Lru7cAY0okebPW-7" value="" style="endArrow=classic;html=1;exitX=0.5;exitY=1;exitDx=0;exitDy=0;entryX=0.5;entryY=0;entryDx=0;entryDy=0;" edge="1" parent="1" source="tClvh8Lru7cAY0okebPW-2" target="tClvh8Lru7cAY0okebPW-3">
          <mxGeometry width="50" height="50" relative="1" as="geometry">
            <mxPoint x="230" y="130" as="sourcePoint" />
            <mxPoint x="230" y="200" as="targetPoint" />
          </mxGeometry>
        </mxCell>
        <mxCell id="tClvh8Lru7cAY0okebPW-8" value="" style="endArrow=classic;html=1;entryX=0.5;entryY=0;entryDx=0;entryDy=0;" edge="1" parent="1" target="tClvh8Lru7cAY0okebPW-4">
          <mxGeometry width="50" height="50" relative="1" as="geometry">
            <mxPoint x="220" y="380" as="sourcePoint" />
            <mxPoint x="230" y="200" as="targetPoint" />
          </mxGeometry>
        </mxCell>
        <mxCell id="tClvh8Lru7cAY0okebPW-9" value="" style="endArrow=classic;html=1;entryX=0.5;entryY=0;entryDx=0;entryDy=0;" edge="1" parent="1" target="tClvh8Lru7cAY0okebPW-5">
          <mxGeometry width="50" height="50" relative="1" as="geometry">
            <mxPoint x="220" y="510" as="sourcePoint" />
            <mxPoint x="230" y="460" as="targetPoint" />
          </mxGeometry>
        </mxCell>
        <mxCell id="tClvh8Lru7cAY0okebPW-10" value="人天评估&lt;br&gt;1，加buffer&lt;br&gt;2，实际人天" style="shape=note;whiteSpace=wrap;html=1;backgroundOutline=1;darkOpacity=0.05;" vertex="1" parent="1">
          <mxGeometry x="360" y="40" width="80" height="100" as="geometry" />
        </mxCell>
        <mxCell id="tClvh8Lru7cAY0okebPW-11" value="" style="endArrow=none;html=1;exitX=1;exitY=0.5;exitDx=0;exitDy=0;" edge="1" parent="1" source="tClvh8Lru7cAY0okebPW-1" target="tClvh8Lru7cAY0okebPW-10">
          <mxGeometry width="50" height="50" relative="1" as="geometry">
            <mxPoint x="420" y="220" as="sourcePoint" />
            <mxPoint x="470" y="170" as="targetPoint" />
          </mxGeometry>
        </mxCell>
        <mxCell id="tClvh8Lru7cAY0okebPW-12" value="参与者&lt;br&gt;系统Owner&lt;br&gt;参与研发的人" style="shape=note;whiteSpace=wrap;html=1;backgroundOutline=1;darkOpacity=0.05;" vertex="1" parent="1">
          <mxGeometry x="20" y="190" width="80" height="190" as="geometry" />
        </mxCell>
        <mxCell id="tClvh8Lru7cAY0okebPW-15" value="" style="endArrow=none;html=1;entryX=0;entryY=0.5;entryDx=0;entryDy=0;" edge="1" parent="1" target="tClvh8Lru7cAY0okebPW-2">
          <mxGeometry width="50" height="50" relative="1" as="geometry">
            <mxPoint x="103" y="220" as="sourcePoint" />
            <mxPoint x="490" y="270" as="targetPoint" />
          </mxGeometry>
        </mxCell>
        <mxCell id="tClvh8Lru7cAY0okebPW-16" value="" style="endArrow=none;html=1;entryX=0;entryY=0.5;entryDx=0;entryDy=0;" edge="1" parent="1" target="tClvh8Lru7cAY0okebPW-3">
          <mxGeometry width="50" height="50" relative="1" as="geometry">
            <mxPoint x="99" y="350" as="sourcePoint" />
            <mxPoint x="490" y="270" as="targetPoint" />
          </mxGeometry>
        </mxCell>
        <mxCell id="tClvh8Lru7cAY0okebPW-17" value="交付物&lt;br&gt;系统分析文档" style="ellipse;whiteSpace=wrap;html=1;" vertex="1" parent="1">
          <mxGeometry x="340" y="180" width="120" height="80" as="geometry" />
        </mxCell>
        <mxCell id="tClvh8Lru7cAY0okebPW-18" value="交付物&lt;br&gt;源代码" style="ellipse;whiteSpace=wrap;html=1;" vertex="1" parent="1">
          <mxGeometry x="340" y="310" width="120" height="80" as="geometry" />
        </mxCell>
        <mxCell id="tClvh8Lru7cAY0okebPW-19" value="" style="endArrow=none;html=1;exitX=1;exitY=0.5;exitDx=0;exitDy=0;entryX=0;entryY=0.5;entryDx=0;entryDy=0;" edge="1" parent="1" source="tClvh8Lru7cAY0okebPW-2" target="tClvh8Lru7cAY0okebPW-17">
          <mxGeometry width="50" height="50" relative="1" as="geometry">
            <mxPoint x="440" y="310" as="sourcePoint" />
            <mxPoint x="490" y="260" as="targetPoint" />
          </mxGeometry>
        </mxCell>
        <mxCell id="tClvh8Lru7cAY0okebPW-20" value="" style="endArrow=none;html=1;exitX=1;exitY=0.5;exitDx=0;exitDy=0;entryX=0;entryY=0.5;entryDx=0;entryDy=0;" edge="1" parent="1" source="tClvh8Lru7cAY0okebPW-3" target="tClvh8Lru7cAY0okebPW-18">
          <mxGeometry width="50" height="50" relative="1" as="geometry">
            <mxPoint x="440" y="310" as="sourcePoint" />
            <mxPoint x="490" y="260" as="targetPoint" />
          </mxGeometry>
        </mxCell>
        <mxCell id="tClvh8Lru7cAY0okebPW-23" value="1，架构图、时序图、类图&lt;br&gt;2，数据库表结构（细化到列）&lt;br&gt;3，接口设计、数据协议&lt;br&gt;&lt;br&gt;不要拘泥于形式，可以是word、txt或拍照" style="text;html=1;strokeColor=none;fillColor=none;align=left;verticalAlign=middle;whiteSpace=wrap;rounded=0;" vertex="1" parent="1">
          <mxGeometry x="500" y="195" width="240" height="50" as="geometry" />
        </mxCell>
        <mxCell id="tClvh8Lru7cAY0okebPW-24" value="1，Git分支管理（明确迭代分支、清理现有分支）&lt;br&gt;2，CodeReview&lt;br&gt;3，开发自测" style="text;html=1;strokeColor=none;fillColor=none;align=left;verticalAlign=middle;whiteSpace=wrap;rounded=0;" vertex="1" parent="1">
          <mxGeometry x="500" y="325" width="280" height="50" as="geometry" />
        </mxCell>
        <mxCell id="tClvh8Lru7cAY0okebPW-25" value="交付物&lt;br&gt;测试报告" style="ellipse;whiteSpace=wrap;html=1;" vertex="1" parent="1">
          <mxGeometry x="340" y="440" width="120" height="80" as="geometry" />
        </mxCell>
        <mxCell id="tClvh8Lru7cAY0okebPW-26" value="" style="endArrow=none;html=1;exitX=1;exitY=0.5;exitDx=0;exitDy=0;entryX=0;entryY=0.5;entryDx=0;entryDy=0;" edge="1" parent="1" source="tClvh8Lru7cAY0okebPW-4" target="tClvh8Lru7cAY0okebPW-25">
          <mxGeometry width="50" height="50" relative="1" as="geometry">
            <mxPoint x="290" y="360" as="sourcePoint" />
            <mxPoint x="349.99999999999795" y="360" as="targetPoint" />
          </mxGeometry>
        </mxCell>
        <mxCell id="tClvh8Lru7cAY0okebPW-27" value="功能验证&lt;br&gt;灰度发布？&lt;br&gt;紧急回滚方案？" style="ellipse;whiteSpace=wrap;html=1;" vertex="1" parent="1">
          <mxGeometry x="340" y="560" width="120" height="80" as="geometry" />
        </mxCell>
        <mxCell id="tClvh8Lru7cAY0okebPW-28" value="" style="endArrow=none;html=1;exitX=1;exitY=0.5;exitDx=0;exitDy=0;entryX=0;entryY=0.5;entryDx=0;entryDy=0;" edge="1" parent="1" source="tClvh8Lru7cAY0okebPW-5" target="tClvh8Lru7cAY0okebPW-27">
          <mxGeometry width="50" height="50" relative="1" as="geometry">
            <mxPoint x="290" y="490" as="sourcePoint" />
            <mxPoint x="349.99999999999795" y="490" as="targetPoint" />
          </mxGeometry>
        </mxCell>
        <mxCell id="tClvh8Lru7cAY0okebPW-32" value="CodeReview&lt;br&gt;1，系统owner负责Review&lt;br&gt;2，主讲人负责讲解业务背景和代码实现&lt;br&gt;3，CR需要关注的点：&lt;br&gt;代码规范性（阿里代码规约插件、FindBugs）&lt;br&gt;实现思路、代码注释&lt;br&gt;性能方面（时间和空间）&lt;br&gt;其他未想到的影响点&lt;br&gt;" style="shape=card;whiteSpace=wrap;html=1;align=left;verticalAlign=middle;" vertex="1" parent="1">
          <mxGeometry x="500" y="410" width="250" height="160" as="geometry" />
        </mxCell>
        <mxCell id="tClvh8Lru7cAY0okebPW-33" value="需求不清或参与者理解的不一致" style="shape=note;whiteSpace=wrap;html=1;backgroundOutline=1;darkOpacity=0.05;" vertex="1" parent="1">
          <mxGeometry x="20" y="430" width="80" height="100" as="geometry" />
        </mxCell>
        <mxCell id="tClvh8Lru7cAY0okebPW-34" value="" style="endArrow=none;html=1;entryX=0.5;entryY=1;entryDx=0;entryDy=0;exitX=0;exitY=0;exitDx=140;exitDy=0;exitPerimeter=0;" edge="1" parent="1" source="tClvh8Lru7cAY0okebPW-32" target="tClvh8Lru7cAY0okebPW-24">
          <mxGeometry width="50" height="50" relative="1" as="geometry">
            <mxPoint x="440" y="470" as="sourcePoint" />
            <mxPoint x="490" y="420" as="targetPoint" />
          </mxGeometry>
        </mxCell>
        <mxCell id="tClvh8Lru7cAY0okebPW-35" value="" style="endArrow=none;html=1;exitX=1;exitY=0.5;exitDx=0;exitDy=0;entryX=0;entryY=0.5;entryDx=0;entryDy=0;" edge="1" parent="1" source="tClvh8Lru7cAY0okebPW-18" target="tClvh8Lru7cAY0okebPW-24">
          <mxGeometry width="50" height="50" relative="1" as="geometry">
            <mxPoint x="440" y="410" as="sourcePoint" />
            <mxPoint x="490" y="360" as="targetPoint" />
          </mxGeometry>
        </mxCell>
        <mxCell id="tClvh8Lru7cAY0okebPW-36" value="" style="endArrow=none;html=1;exitX=1;exitY=0.5;exitDx=0;exitDy=0;" edge="1" parent="1" source="tClvh8Lru7cAY0okebPW-17" target="tClvh8Lru7cAY0okebPW-23">
          <mxGeometry width="50" height="50" relative="1" as="geometry">
            <mxPoint x="440" y="410" as="sourcePoint" />
            <mxPoint x="490" y="360" as="targetPoint" />
          </mxGeometry>
        </mxCell>
      </root>
    </mxGraphModel>
  </diagram>
</mxfile>
